<svg width="39" height="70" viewBox="0 0 39 70" fill="none" xmlns="http://www.w3.org/2000/svg">
<path d="M32.3985 29.3911C32.6529 29.8033 32.9413 30.1991 33.1542 30.6317C33.5423 31.4207 33.6407 32.2491 33.3382 33.0984C33.1002 33.3583 32.8118 33.4355 32.4591 33.4146C31.4908 33.3567 30.5217 33.3932 29.549 33.3295C27.5606 33.1991 25.6564 32.7285 23.7828 32.1137C23.4245 31.9961 22.9655 31.9342 22.7296 31.5378C22.8417 31.4921 22.9517 31.4405 23.066 31.4011C27.1249 30.0109 29.7973 27.2751 31.0019 23.1516C31.5212 21.3743 31.5831 19.5607 31.1878 17.7416C31.1735 17.3011 31.0669 16.8833 30.8808 16.4848C30.87 16.4166 30.8694 16.3444 30.8464 16.2804C29.3531 12.1004 26.4694 9.41298 22.1553 8.36011C19.2582 7.65282 16.47 8.08301 13.8283 9.4812C11.9859 10.4563 10.5756 11.8905 9.37942 13.5637C9.05102 13.5042 9.0571 13.244 9.05076 13.0007C9.0415 12.6358 9.09174 12.263 9.03357 11.9071C8.80618 10.515 9.05472 9.14778 9.225 7.77973C9.43944 6.05527 9.93256 4.39637 10.5328 2.76894C12.032 2.43552 13.7152 3.32208 14.4804 4.84798C14.5248 4.93682 14.5679 5.02619 14.6604 5.10948C14.5814 4.45613 14.5647 3.81071 14.7239 3.17745C15.139 1.52464 16.318 0.654469 17.8669 0.230623C19.4571 -0.204328 20.9983 -0.0263812 22.4517 0.784293C23.8243 1.55002 24.5747 3.10024 24.3272 4.66078C24.3042 4.80647 24.2576 4.95665 24.347 5.14544C24.6662 4.53545 25.007 3.97623 25.5284 3.55635C26.7412 2.58015 28.1154 2.4728 29.521 2.94821C31.2639 3.53784 32.5831 4.65919 33.2528 6.41777C33.7639 7.7599 33.5175 9.01267 32.6595 10.1528C32.5445 10.3056 32.4273 10.4566 32.3112 10.6084C32.2925 10.6351 32.2518 10.6755 32.2584 10.6864C32.2983 10.7504 32.3409 10.7131 32.3797 10.6776C33.164 10.3815 33.9506 10.1261 34.8133 10.2665C36.1047 10.4767 37.0523 11.2038 37.7321 12.2686C38.7977 13.9375 39.1668 15.7299 38.3979 17.6265C37.8863 18.8883 36.8731 19.5676 35.5651 19.8407C35.4971 19.855 35.4299 19.8722 35.3622 19.8878C35.2628 19.9105 35.1637 19.933 34.9302 19.9864C35.9167 20.1207 36.7171 20.3859 37.3911 20.9536C38.3984 21.8023 38.7892 22.9419 38.789 24.1976C38.7887 25.7388 38.2924 27.1434 37.2567 28.307C36.1111 29.5942 34.4847 30.1558 32.4675 29.3086C32.3834 29.2319 32.2938 29.2015 32.1909 29.2735C32.2602 29.3128 32.3295 29.352 32.3985 29.3911Z" fill="#FEDF30"/>
<path d="M10.5325 2.76929C9.93228 4.39672 9.43916 6.05535 9.22473 7.78008C9.05471 9.14813 8.80617 10.5154 9.0333 11.9075C9.09147 12.2634 9.04123 12.6362 9.05048 13.0011C9.05657 13.2443 9.05048 13.5045 9.37914 13.564C9.22764 13.8509 9.06846 14.1343 8.92568 14.4254C6.86462 18.6274 7.02988 22.7495 9.60363 26.6522C11.6176 29.7058 14.5237 31.4446 18.1995 31.8671C19.7402 32.0443 21.236 31.8758 22.7294 31.5382C22.9655 31.9345 23.4242 31.9967 23.7825 32.1141C25.6561 32.7288 27.5604 33.1995 29.5487 33.3298C30.5215 33.3935 31.4905 33.3571 32.4588 33.415C32.8115 33.4361 33.1002 33.3586 33.3379 33.0987C33.0288 34.6101 32.0265 35.5908 30.806 36.4036C30.6775 36.4892 30.5421 36.5643 30.4099 36.6444C29.3813 37.0855 28.338 37.4022 27.1923 37.1785C26.728 37.0878 26.3324 36.8261 25.8758 36.7314L25.8822 36.737C25.3224 36.1698 24.7275 35.6331 24.3433 34.8975C24.4007 35.5498 24.4419 36.1965 24.288 36.7795C23.9462 38.0754 23.0562 38.9387 21.8293 39.4707C20.9629 39.8464 20.0512 39.9149 19.1273 39.9345C18.5536 39.8652 17.9817 39.7851 17.4306 39.6008C16.8606 39.3834 16.3672 39.0273 15.8447 38.7232L15.8511 38.7251C15.767 38.573 15.6681 38.4342 15.5139 38.3443C15.1914 37.9197 14.9312 37.4612 14.7635 36.953C14.6057 36.3515 14.6602 35.724 14.5658 35.0979C14.373 35.1735 14.3397 35.3422 14.2561 35.4641C13.2332 36.9575 11.6954 37.541 9.93625 37.1235C9.10918 36.9274 8.38285 36.5321 7.67794 36.0812C7.37149 35.806 7.06504 35.531 6.7586 35.2558C6.03227 34.3219 5.46855 33.3327 5.48812 32.0887C5.50477 31.0326 6.01138 30.2035 6.60524 29.3994C6.64014 29.3574 6.67557 29.3156 6.711 29.2738C6.633 29.208 6.57087 29.2447 6.5119 29.3042C3.65286 30.5229 1.49609 28.7955 0.597098 26.3756C0.17669 25.2442 0.0500382 24.0808 0.383721 22.9002C0.843791 21.2723 2.10343 20.2223 3.79405 20.0396C3.87443 20.0309 3.95481 20.0193 4.03969 19.9841C3.13859 19.8265 2.27926 19.5862 1.56748 18.9748C0.566691 18.1145 0.191496 16.9661 0.200751 15.7158C0.21212 14.1399 0.720841 12.7113 1.83188 11.5463C3.15154 10.1624 4.80541 9.86785 6.53914 10.6936C6.60074 10.7229 6.66949 10.7375 6.73506 10.7589C6.76944 10.8224 6.84347 10.8705 6.88102 10.812C6.9294 10.737 6.82338 10.7351 6.77843 10.7073C6.5558 10.4215 6.31016 10.1502 6.1145 9.84696C5.28505 8.56194 5.25121 7.20235 5.9704 5.89406C6.95188 4.10851 8.43574 2.96918 10.5325 2.76929Z" fill="#FAC600"/>
<path d="M14.7638 36.9524C14.9314 37.4606 15.1916 37.9191 15.5142 38.3437C15.4301 38.6446 15.5708 38.7464 15.8513 38.7244L15.8449 38.7226C15.8312 38.9677 16.0419 39.0261 16.1897 39.1361C16.5356 39.3929 16.8957 39.6324 17.168 39.9748C16.0409 41.9605 14.9259 43.9534 13.782 45.9296C13.0338 47.2222 12.3357 48.5446 11.5058 49.7904C11.355 50.0168 11.2998 50.062 11.0483 49.9152C8.01292 48.1458 4.97065 46.388 1.92123 44.6424C1.58834 44.4518 1.49104 44.3122 1.70706 43.9439C3.40244 41.0544 5.07747 38.1528 6.75857 35.2549C7.06502 35.5301 7.37147 35.8051 7.67792 36.0804C7.69167 36.2046 7.72631 36.3128 7.83471 36.3955C8.49785 36.9024 9.16574 37.4019 9.94707 37.7186C11.2765 38.2575 12.5774 38.253 13.8558 37.5399C14.1736 37.363 14.3696 37.0042 14.7638 36.9524Z" fill="#507BE9"/>
<path d="M30.9075 37.6729C31.8713 39.0499 32.6294 40.5499 33.4802 41.9941C33.8985 42.7037 34.2901 43.4298 34.7259 44.1284C34.9207 44.4404 34.6854 44.4777 34.5183 44.5736C31.6635 46.2151 28.8087 47.8563 25.9512 49.4932C25.6223 49.6815 25.2212 50.04 24.9576 49.9631C24.6905 49.8853 24.5491 49.3668 24.3584 49.0382C22.8608 46.4533 21.3643 43.8679 19.8698 41.2815C19.7662 41.1022 19.6826 40.9116 19.5896 40.7262C20.3159 40.6958 21.0512 40.8061 21.7667 40.6115C22.9846 40.2804 24.053 39.7403 24.699 38.5708C25.0723 37.8947 25.1871 37.157 25.2704 36.3828C25.5247 36.4878 25.6175 36.7644 25.8819 36.7369L25.8756 36.7313C26.136 37.0853 26.4787 37.3423 26.8544 37.56C28.1852 38.3299 29.5411 38.1903 30.9075 37.6729Z" fill="#507BE9"/>
<path d="M25.8824 36.7367C25.618 36.7642 25.5252 36.4876 25.2709 36.3827C25.1876 37.1568 25.0731 37.8945 24.6995 38.5706C24.0535 39.7401 22.9851 40.2803 21.7672 40.6113C21.0517 40.8057 20.3161 40.6957 19.5901 40.7261C19.4359 40.4622 19.2818 40.1981 19.1279 39.9342C20.0517 39.9146 20.9634 39.8461 21.8299 39.4704C23.0567 38.9384 23.9467 38.0751 24.2886 36.7793C24.4425 36.1963 24.4012 35.5495 24.3438 34.8972C24.7275 35.6328 25.3224 36.1695 25.8824 36.7367Z" fill="#3878F6"/>
<path d="M30.9075 37.6729C29.5411 38.1903 28.1849 38.3299 26.8547 37.5597C26.479 37.3421 26.1363 37.0851 25.8759 36.7311C26.3325 36.8254 26.728 37.0872 27.1923 37.1779C28.3383 37.4016 29.3814 37.0851 30.4099 36.6438C30.5546 36.997 30.857 37.2741 30.9075 37.6729Z" fill="#3878F6"/>
<path d="M17.1683 39.9749C16.896 39.6325 16.5356 39.3929 16.19 39.1362C16.0419 39.0262 15.8315 38.9678 15.8452 38.7227C16.3674 39.0267 16.8611 39.3829 17.4311 39.6002C17.3574 39.7348 17.3077 39.8861 17.1683 39.9749Z" fill="#3878F6"/>
<path d="M22.7294 31.5378C21.236 31.8754 19.7402 32.0438 18.1995 31.8667C14.5237 31.4444 11.6176 29.7057 9.60364 26.6518C7.0299 22.7491 6.86438 18.6273 8.9257 14.425C9.06848 14.1336 9.22766 13.8505 9.37916 13.5636C10.5756 11.8904 11.986 10.456 13.8284 9.48112C16.4701 8.08293 19.2582 7.65274 22.1554 8.36003C26.4694 9.41317 29.3531 12.1006 30.8464 16.2804C30.8694 16.3444 30.8697 16.4165 30.8808 16.4848C30.6571 16.6236 30.3533 16.8893 30.4332 17.0453C30.581 17.3338 30.7684 17.6965 31.1878 17.7415C31.5828 19.5606 31.5212 21.3742 31.0019 23.1515C29.7973 27.275 27.1249 30.0108 23.066 31.4011C22.9515 31.4405 22.8415 31.492 22.7294 31.5378ZM17.8241 30.2771C17.8997 30.2609 18.0007 30.2572 17.9764 30.148C17.9679 30.1105 17.8775 30.0909 17.8246 30.0634C17.6834 29.9204 17.5425 29.9198 17.4016 30.0637C17.3167 30.0674 17.2403 30.0885 17.1932 30.1679C17.042 30.3434 17.0401 30.5193 17.1927 30.6954C17.199 30.8281 17.2683 30.8979 17.401 30.9045C17.5044 31.2414 17.6929 31.0864 17.9462 31.06C17.7416 30.8254 17.543 31.0312 17.4071 30.8995C17.5145 30.6517 17.3278 30.6993 17.1972 30.6906C17.1974 30.5185 17.1977 30.3461 17.198 30.1737C17.2828 30.1695 17.359 30.148 17.4053 30.0684C17.543 30.0687 17.681 30.0687 17.8188 30.069C17.8191 30.1372 17.8193 30.2057 17.8196 30.2739C17.7945 30.3101 17.7694 30.3466 17.744 30.3828C17.7567 30.3913 17.7694 30.3998 17.782 30.4085C17.7966 30.3643 17.8103 30.3207 17.8241 30.2771ZM17.6752 25.9326C17.837 25.9344 17.8865 25.8276 17.9576 25.7575C18.3045 25.4157 18.6472 25.0693 18.9917 24.7248C21.5261 22.1907 24.058 19.6539 26.5998 17.1273C26.834 16.8943 26.8801 16.7571 26.6075 16.5128C26.1289 16.0836 25.6778 15.6215 25.2413 15.1492C25.0453 14.9372 24.9081 14.9723 24.7362 15.1447C24.3936 15.489 24.0475 15.8298 23.7048 16.1743C21.8296 18.0604 19.9502 19.9419 18.0861 21.8388C17.8151 22.1145 17.6612 22.1711 17.3595 21.8559C16.3416 20.793 15.2813 19.7708 14.2503 18.7201C14.046 18.5117 13.9333 18.4924 13.7247 18.7214C13.2919 19.1968 12.8284 19.645 12.363 20.0897C12.1687 20.2756 12.0997 20.394 12.3339 20.6256C14.0536 22.3255 15.7577 24.041 17.4679 25.7507C17.5396 25.8221 17.62 25.8845 17.6752 25.9326ZM18.0655 30.8561C18.1908 30.6845 18.2931 30.5735 18.1493 30.4167C17.9814 30.5261 18.0322 30.6583 18.0655 30.8561Z" fill="#FDFDFD"/>
<path d="M31.1875 17.7421C30.7681 17.6971 30.5809 17.3344 30.4329 17.0459C30.3527 16.8899 30.6568 16.6244 30.8805 16.4854C31.0669 16.8835 31.1735 17.3016 31.1875 17.7421Z" fill="#F4F4F4"/>
<path d="M32.3985 29.3911C32.3294 29.352 32.2602 29.3126 32.1912 29.2734C32.294 29.2015 32.3839 29.2319 32.4677 29.3086C32.4447 29.3361 32.4217 29.3636 32.3985 29.3911Z" fill="#F4F4F4"/>
<path d="M32.3798 10.6777C32.3409 10.7131 32.2981 10.7504 32.2584 10.6864C32.2518 10.6756 32.2925 10.6354 32.3113 10.6084C32.3346 10.6309 32.3576 10.6541 32.3798 10.6777Z" fill="#F4F4F4"/>
<path d="M14.7638 36.9525C14.3693 37.0043 14.1736 37.3631 13.8561 37.5403C12.5777 38.2536 11.2768 38.2581 9.94734 37.719C9.16602 37.4023 8.49812 36.9028 7.83499 36.3959C7.72658 36.3132 7.69194 36.205 7.67819 36.0807C8.3831 36.5313 9.1097 36.9266 9.9365 37.123C11.6959 37.5408 13.2337 36.957 14.2564 35.4636C14.34 35.3417 14.373 35.173 14.566 35.0974C14.6604 35.7235 14.6059 36.351 14.7638 36.9525Z" fill="#3878F6"/>
<path d="M15.8513 38.7245C15.5708 38.7464 15.4301 38.6446 15.5142 38.3438C15.6683 38.4336 15.7675 38.5725 15.8513 38.7245Z" fill="#3878F6"/>
<path d="M6.77847 10.707C6.82342 10.7348 6.92945 10.7366 6.88106 10.8117C6.84325 10.8704 6.76922 10.8223 6.73511 10.7586C6.74991 10.7417 6.76419 10.7245 6.77847 10.707Z" fill="#F4F4F4"/>
<path d="M6.51242 29.3034C6.57112 29.244 6.63352 29.2072 6.71152 29.273C6.67609 29.3148 6.64066 29.3566 6.60576 29.3986C6.57482 29.3672 6.54362 29.3352 6.51242 29.3034Z" fill="#F4F4F4"/>
<path d="M17.6752 25.9328C17.6199 25.8847 17.5396 25.8223 17.4682 25.7509C15.7582 24.0412 14.0539 22.3257 12.3342 20.6258C12.0999 20.3942 12.1686 20.2758 12.3633 20.0899C12.8283 19.6452 13.2919 19.197 13.725 18.7216C13.9336 18.4926 14.0459 18.5116 14.2506 18.7203C15.2813 19.771 16.3418 20.7929 17.3595 21.8561C17.6612 22.1713 17.8151 22.1147 18.0861 21.8389C19.9502 19.9423 21.8296 18.0606 23.7048 16.1745C24.0472 15.83 24.3933 15.4892 24.7362 15.1449C24.9081 14.9723 25.0453 14.9374 25.2412 15.1494C25.6778 15.6217 26.1289 16.0841 26.6074 16.513C26.8798 16.7573 26.8338 16.8948 26.5998 17.1275C24.058 19.6541 21.5263 22.1909 18.9917 24.725C18.6472 25.0695 18.3045 25.4156 17.9576 25.7577C17.8865 25.8278 17.837 25.9346 17.6752 25.9328Z" fill="#507BE9"/>
<path d="M17.4074 30.8994C17.543 31.0311 17.7418 30.8254 17.9462 31.0602C17.6929 31.0863 17.5044 31.2416 17.4013 30.9044L17.4074 30.8994Z" fill="#F4F4F4"/>
<path d="M18.0655 30.8562C18.0322 30.6582 17.9814 30.5262 18.1493 30.4167C18.2931 30.5735 18.1905 30.6846 18.0655 30.8562Z" fill="#F4F4F4"/>
<path d="M17.1985 30.1738C17.1983 30.3459 17.198 30.5183 17.1975 30.6905L17.1927 30.6952C17.0401 30.5191 17.042 30.3433 17.1932 30.1677L17.1985 30.1738Z" fill="#F4F4F4"/>
<path d="M17.1974 30.6904C17.328 30.6992 17.5147 30.6513 17.4073 30.8993L17.4012 30.9043C17.2685 30.8977 17.199 30.8279 17.1926 30.6952C17.1929 30.6952 17.1974 30.6904 17.1974 30.6904Z" fill="#F4F4F4"/>
<path d="M17.4016 30.0634C17.5425 29.9198 17.6837 29.9201 17.8246 30.0634L17.8191 30.0687C17.6813 30.0684 17.5433 30.0684 17.4055 30.0681C17.4058 30.0681 17.4016 30.0634 17.4016 30.0634Z" fill="#F4F4F4"/>
<path d="M17.8246 30.0635C17.8775 30.0912 17.9679 30.1105 17.9764 30.1481C18.0007 30.2573 17.8997 30.261 17.8241 30.2771L17.8199 30.2734C17.8196 30.2052 17.8193 30.1367 17.8191 30.0685C17.8191 30.0688 17.8246 30.0635 17.8246 30.0635Z" fill="#F4F4F4"/>
<path d="M17.1935 30.1677C17.2405 30.0883 17.3169 30.0672 17.4018 30.0635L17.4058 30.0682C17.3592 30.1481 17.2833 30.1695 17.1985 30.1737L17.1935 30.1677Z" fill="#F4F4F4"/>
<path d="M17.8241 30.2771C17.8103 30.3208 17.7963 30.3644 17.7826 30.408C17.7699 30.3996 17.7572 30.3911 17.7445 30.3824C17.7696 30.3461 17.7947 30.3097 17.8201 30.2734C17.8201 30.2737 17.8241 30.2771 17.8241 30.2771Z" fill="#F4F4F4"/>
</svg>
