<svg width="196" height="40" viewBox="0 0 196 40" fill="none" xmlns="http://www.w3.org/2000/svg">
<path d="M128.624 27.0038C128.624 26.7811 128.804 26.6006 129.026 26.6006H195.594C195.816 26.6006 195.997 26.7811 195.997 27.0038C195.997 27.2266 195.816 27.4071 195.594 27.4071H129.026C128.804 27.4071 128.624 27.2266 128.624 27.0038Z" fill="url(#paint0_linear_0_37)"/>
<path d="M136.021 9.05775H136.899V20.05H136.021V14.9779H129.483V20.05H128.605V9.05775H129.483V14.177H136.021V9.05775Z" fill="white"/>
<path d="M142.609 9.05775H149.586V9.87432H143.487V14.0514H148.112V14.868H143.487V19.2335H149.586V20.05H142.609V9.05775Z" fill="white"/>
<path d="M158.774 8.88501L163.054 20.05H162.114L160.734 16.3912H155.827L154.447 20.05H153.522L157.802 8.88501H158.774ZM158.319 9.92143H158.257L156.124 15.5903H160.452L158.319 9.92143Z" fill="white"/>
<path d="M167.538 20.05V9.05775H168.416V19.2335H173.888V20.05H167.538Z" fill="white"/>
<path d="M175.237 9.05775H183.155V9.87432H179.643V20.05H178.765V9.87432H175.237V9.05775Z" fill="white"/>
<path d="M195.122 9.05775H196V20.05H195.122V14.9779H188.584V20.05H187.706V9.05775H188.584V14.177H195.122V9.05775Z" fill="white"/>
<path d="M118.219 26.5225C116.89 27.8541 114.734 27.8541 113.405 26.5225L94.146 7.2334C92.8165 5.90177 92.8165 3.74277 94.146 2.41114C95.4756 1.0795 97.6312 1.07951 98.9607 2.41114L118.219 21.7002C119.549 23.0318 119.549 25.1908 118.219 26.5225Z" fill="url(#paint1_linear_0_37)"/>
<path d="M94.1192 26.5889C92.7897 25.2572 92.7897 23.0982 94.1192 21.7666L113.378 2.47754C114.707 1.14591 116.863 1.14591 118.193 2.47754C119.522 3.80917 119.522 5.96817 118.193 7.2998L98.9339 26.5889C97.6043 27.9205 95.4487 27.9205 94.1192 26.5889Z" fill="url(#paint2_linear_0_37)"/>
<path d="M14.2608 19.7197C14.2608 20.8638 13.7968 21.8291 12.8865 22.5978C11.9584 23.3844 10.709 23.7598 9.13836 23.7598C8.28164 23.7598 7.46061 23.6704 6.69313 23.4559C5.92565 23.2414 5.31881 23.009 4.85475 22.7587C4.3907 22.5084 3.94449 22.2045 3.55182 21.8649C3.15916 21.5252 2.89143 21.2928 2.78434 21.1498C2.67725 21.0068 2.58801 20.8996 2.55232 20.8281L0 23.3844L0.356967 23.8313C0.571147 24.0995 0.945963 24.4212 1.44572 24.8145C1.94547 25.2078 2.53447 25.6011 3.2127 25.9944C3.89094 26.3877 4.74766 26.7094 5.80072 26.9955C6.85377 27.2815 7.96037 27.4245 9.13836 27.4245C11.9941 27.4245 14.2251 26.7094 15.8493 25.2793C17.4557 23.8492 18.2767 21.99 18.2767 19.7376C18.2767 18.4505 18.0268 17.3421 17.5271 16.4126C17.0273 15.483 16.3669 14.7679 15.5816 14.2674C14.7963 13.7668 13.9217 13.3378 12.9579 12.9803C11.9941 12.6227 11.0303 12.3367 10.0665 12.0864C9.10266 11.8362 8.21024 11.568 7.42492 11.2641C6.63959 10.9602 5.99705 10.5312 5.49729 9.99489C4.99754 9.4586 4.74766 8.79717 4.74766 8.0106C4.74766 7.13465 5.14033 6.36596 5.9435 5.70453C6.74668 5.06098 7.81758 4.72132 9.13836 4.72132C9.7809 4.72132 10.4056 4.81071 10.9946 4.95372C11.5836 5.11461 12.0655 5.29337 12.4225 5.49001C12.7794 5.68666 13.1185 5.90117 13.4398 6.15145C13.7611 6.40172 13.9574 6.58048 14.0467 6.68774C14.1359 6.795 14.2073 6.88438 14.2608 6.92014L16.8132 4.34592L16.5276 3.98839C16.3134 3.77387 15.9921 3.50572 15.5638 3.18394C15.1354 2.86217 14.6178 2.55827 14.0467 2.23649C13.4755 1.91471 12.7437 1.64657 11.8692 1.41417C10.9946 1.18178 10.0843 1.05664 9.13836 1.05664C6.55035 1.05664 4.49779 1.73595 2.99852 3.05881C1.48141 4.38167 0.731783 6.04419 0.731783 8.0106C0.731783 9.31559 0.98166 10.4239 1.48141 11.3535C1.98117 12.2831 2.62371 12.9803 3.40904 13.4808C4.19436 13.9814 5.08678 14.4104 6.05059 14.7679C7.0144 15.1255 7.97822 15.4294 8.94203 15.6796C9.90584 15.9299 10.7804 16.198 11.5657 16.5019C12.3511 16.8058 13.0115 17.217 13.5112 17.7533C14.011 18.2896 14.2608 18.9331 14.2608 19.7197Z" fill="white"/>
<path d="M25.0291 9.47648H21.3702V27.0491H25.0291V9.47648ZM25.4039 3.98839C25.4039 3.36271 25.1897 2.84429 24.7792 2.43313C24.3509 2.0041 23.8333 1.80745 23.2086 1.80745C22.566 1.80745 22.0484 2.0041 21.6379 2.43313C21.2096 2.84429 21.0132 3.36271 21.0132 3.98839C21.0132 4.63194 21.2096 5.15036 21.6379 5.56152C22.0484 5.99056 22.566 6.1872 23.2086 6.1872C23.8333 6.1872 24.3509 5.99056 24.7792 5.56152C25.1897 5.15036 25.4039 4.63194 25.4039 3.98839Z" fill="white"/>
<path d="M30.3358 1.41417V27.0491H34.3517V17.8963H40.5629C42.9903 17.8963 45.0428 17.1097 46.6849 15.5009C48.3269 13.9098 49.1658 11.9613 49.1658 9.67312C49.1658 7.38492 48.3269 5.43639 46.6849 3.8275C45.0428 2.21861 42.9903 1.43205 40.5629 1.43205L30.3358 1.41417ZM40.5629 5.09673C41.8123 5.09673 42.901 5.52577 43.7934 6.41959C44.6859 7.29554 45.1321 8.38601 45.1321 9.67312C45.1321 10.9602 44.6859 12.0507 43.7934 12.9266C42.901 13.8026 41.8123 14.2316 40.5629 14.2316H34.3517V5.07885L40.5629 5.09673Z" fill="white"/>
<path d="M56.4536 1.41417H52.8126V27.0491H56.4536V17.5388C56.4536 15.9299 56.8642 14.6607 57.6852 13.7668C58.5062 12.873 59.6306 12.4082 61.0228 12.4082C62.2187 12.4082 63.2182 12.8373 64.0213 13.6596C64.8245 14.4998 65.235 15.5545 65.235 16.8237V27.067H68.8939V16.8237C68.8939 14.464 68.2336 12.6049 66.9128 11.2105C65.592 9.81613 63.8607 9.11895 61.7546 9.11895C61.1478 9.11895 60.5409 9.19045 59.9519 9.35134C59.3451 9.51223 58.8632 9.69099 58.4705 9.88764C58.0778 10.0843 57.703 10.2988 57.3639 10.5491C57.0248 10.7993 56.7928 10.9781 56.6857 11.0854C56.5786 11.1926 56.4893 11.2641 56.4536 11.3178V1.41417Z" fill="white"/>
<path d="M86.2483 18.2717C86.2483 19.9164 85.695 21.2928 84.6241 22.4191C83.5353 23.5632 82.2502 24.1173 80.7688 24.1173C79.2696 24.1173 77.9845 23.5632 76.8957 22.4191C75.807 21.2928 75.2715 19.9164 75.2715 18.2717C75.2715 16.6271 75.807 15.2506 76.8957 14.1065C77.9845 12.9803 79.2696 12.4082 80.7688 12.4082C82.2502 12.4082 83.5353 12.9803 84.6241 14.1065C85.695 15.2506 86.2483 16.6271 86.2483 18.2717ZM71.6305 18.2717C71.6305 20.7387 72.5229 22.866 74.3434 24.6894C76.1639 26.5128 78.3057 27.4245 80.7688 27.4245C83.2319 27.4245 85.3558 26.5128 87.1764 24.6894C88.9969 22.866 89.9072 20.7387 89.9072 18.2717C89.9072 15.8048 88.9969 13.6596 87.1764 11.8362C85.3558 10.0128 83.2319 9.10107 80.7688 9.10107C78.3057 9.10107 76.1639 10.0128 74.3434 11.8362C72.5229 13.6596 71.6305 15.8048 71.6305 18.2717Z" fill="white"/>
<defs>
<linearGradient id="paint0_linear_0_37" x1="144.345" y1="26.6006" x2="177.216" y2="26.6006" gradientUnits="userSpaceOnUse">
<stop offset="0.0885417" stop-color="#079E8E"/>
<stop offset="0.692708" stop-color="#4AC6C1"/>
</linearGradient>
<linearGradient id="paint1_linear_0_37" x1="106.208" y1="23.6985" x2="106.208" y2="5.28529" gradientUnits="userSpaceOnUse">
<stop stop-color="#F1D537"/>
<stop offset="1" stop-color="#F66B37"/>
</linearGradient>
<linearGradient id="paint2_linear_0_37" x1="97.3293" y1="18.5515" x2="109.093" y2="6.80601" gradientUnits="userSpaceOnUse">
<stop offset="0.0885417" stop-color="#079E8E"/>
<stop offset="0.692708" stop-color="#4AC6C1"/>
</linearGradient>
</defs>
</svg>
