<svg width="51" height="70" viewBox="0 0 51 70" fill="none" xmlns="http://www.w3.org/2000/svg">
<path d="M25.5039 50C11.6733 49.9842 1.60335 40.7852 0.542706 28.839C-0.533698 16.7155 7.75426 5.83963 19.6743 3.75213C24.8384 2.84787 29.762 3.58699 34.4582 5.93196C35.2566 6.33055 35.6912 6.70011 35.2414 7.65166C35.0014 8.15933 34.9866 8.7701 34.841 9.32681C34.5022 10.6209 33.8539 10.9131 32.7227 10.3019C23.1212 5.11177 11.284 9.08111 6.75893 19.0082C1.72995 30.0405 8.54593 43.0684 20.503 45.0561C28.1104 46.3206 34.4307 43.7828 38.9124 37.539C43.4415 31.2295 43.6434 24.4333 40.0544 17.543C39.6023 16.6747 39.8437 16.0067 40.8728 15.6844C41.7496 15.4097 42.6631 15.254 43.5561 15.0294C44.2001 14.8672 44.2146 15.4435 44.374 15.7605C48.0834 23.1412 48.2037 30.5952 44.2279 37.8378C39.8327 45.8447 32.7773 49.7082 25.5039 50Z" fill="#3474D6"/>
<path d="M36.0616 20.092C40.5366 28.1748 35.7989 38.3258 26.8351 40.3445C19.1546 42.0742 11.6766 37.2021 10.0542 29.4116C8.48366 21.8685 13.5499 14.3204 21.1838 12.9783C23.8661 12.5069 26.5613 12.6375 29.1252 13.7527C30.1444 14.1961 30.1854 14.3822 29.4135 15.1769C29.3599 15.2319 29.3029 15.2842 29.2546 15.3435C27.9352 16.9636 26.5771 17.7693 24.1551 17.4808C19.2502 16.8968 15.0199 20.8074 14.4552 25.7845C13.9297 30.4167 17.2478 34.8369 21.8982 35.8583C27.964 37.1904 34.4169 31.7698 32.8786 24.6571C32.7233 23.939 32.7798 23.4668 33.3415 22.9459C34.2668 22.0877 35.0918 21.1216 36.0616 20.092Z" fill="#FB6155"/>
<path d="M45.0966 0.0803175C44.8985 1.70844 44.7403 3.34256 44.4856 4.96192C44.3553 5.79162 44.396 6.08536 45.4169 6.0103C47.077 5.88845 48.7047 5.57093 50.5512 5.34249C50.1424 5.80162 49.8686 6.13916 49.5641 6.44591C48.1294 7.89088 46.6069 9.25828 45.2685 10.7871C43.9807 12.2585 42.4617 13.1218 40.5396 13.3314C39.7852 13.4138 39.2074 13.7833 38.6665 14.331C35.4 17.6386 32.1115 20.9248 28.8029 24.1903C28.3133 24.6737 28.1576 25.0936 28.314 25.7887C28.7644 27.7916 27.8036 29.806 26.0459 30.7721C24.2801 31.7424 21.8959 31.4184 20.4942 30.017C19.0908 28.614 18.731 26.3476 19.631 24.5801C20.5728 22.7303 22.579 21.698 24.6374 22.1511C25.4001 22.319 25.8267 22.1036 26.3254 21.5986C29.3221 18.5643 32.3081 15.5168 35.3845 12.5643C36.4636 11.5287 37.183 10.416 37.3539 8.94151C37.4975 7.70247 38.103 6.74366 39.0038 5.87594C40.9949 3.95807 42.9128 1.9634 44.8607 0C44.9392 0.0267725 45.0178 0.053545 45.0966 0.0803175Z" fill="#FE9738"/>
</svg>
