<svg width="48" height="70" viewBox="0 0 48 70" fill="none" xmlns="http://www.w3.org/2000/svg">
<path d="M44.163 18.3927C44.0362 18.2571 43.8537 18.1872 43.6676 18.1872H41.6263C41.2693 16.7158 41.1703 9.68509 32.1984 3.9075C25.839 -0.187954 21.6477 0.00218739 19.4966 0.00112811C19.4341 0.00112811 19.371 0.0143691 19.3178 0.0469421C19.1743 0.135127 19.1226 0.303818 19.1769 0.448145L20.9992 4.35187C21.0476 4.4811 21.1718 4.56664 21.3103 4.56664C25.6195 4.56664 36.8063 9.35618 36.8063 18.1872H35.0537C34.8678 18.1872 34.6851 18.2571 34.5582 18.3927C34.3194 18.6482 34.3207 19.0227 34.5299 19.2729L38.8502 24.4359C38.9765 24.5868 39.1635 24.6742 39.3608 24.6742C39.5581 24.6742 39.745 24.5868 39.8713 24.4359L44.1916 19.2729C44.4008 19.0229 44.4019 18.6482 44.163 18.3927Z" fill="#507BE9"/>
<path d="M0.983526 43.5789L5.78525 42.7447C6.45499 42.7015 7.12498 42.7497 7.7775 42.8866C7.80107 42.8903 7.82305 42.8954 7.84662 42.9001C8.26742 42.9915 8.68186 43.1197 9.0828 43.2849L24.7303 49.7209C25.7247 50.1305 26.8459 50.0874 27.8056 49.6025L46.3322 40.2554C47.0785 39.878 47.5499 39.1129 47.5499 38.2766C47.5499 37.0232 46.5247 36.0598 45.3381 36.0598C45.1593 36.0598 44.9766 36.0821 44.7941 36.1276L30.3188 39.6349L30.2645 39.6484L0.116768 30.032V42.8496C0.116768 43.3093 0.530947 43.6578 0.983526 43.5789Z" fill="#FED2A4"/>
<path d="M46.5515 36.426C46.481 36.4724 46.4088 36.5161 46.3322 36.5545L27.8056 45.9016C26.8459 46.3865 25.7244 46.4296 24.7303 46.02L9.0828 39.584C8.68186 39.4188 8.26742 39.2903 7.84662 39.1992C7.82305 39.1942 7.80107 39.1894 7.7775 39.1857C7.12498 39.0488 6.45499 39.0006 5.78525 39.0438L0.983526 39.878C0.530947 39.9571 0.116768 39.6086 0.116768 39.1492V42.85C0.116768 43.3095 0.530947 43.658 0.983526 43.5794L5.78525 42.7452C6.45499 42.702 7.12498 42.7502 7.7775 42.8871C7.80107 42.8908 7.82305 42.8959 7.84662 42.9006C8.26742 42.992 8.68186 43.1202 9.0828 43.2854L24.7303 49.7213C25.7247 50.131 26.8459 50.0879 27.8056 49.603L46.3322 40.2559C47.0785 39.8785 47.5499 39.1134 47.5499 38.2771C47.5499 37.4898 47.1457 36.8177 46.5515 36.426Z" fill="#FFBD86"/>
<path d="M17.4358 39.1155C17.4358 40.2137 18.1561 41.1819 19.208 41.497C19.9386 41.716 20.6695 41.935 21.4007 42.154L22.8021 42.5735L27.1309 43.8701C27.6398 44.0975 28.1883 44.142 28.6907 44.0279C28.6907 44.0279 29.4186 43.855 29.9719 43.2334C30.7303 42.3815 30.8349 40.9841 30.3185 39.6351C21.2487 33.1271 16.0971 30.4971 14.8628 31.7442C14.0588 32.5564 14.9165 35.0137 17.4358 39.1155Z" fill="#FFBD86"/>
<path d="M17.4358 39.1154C18.757 39.5113 20.0782 39.9075 21.4007 40.3034L22.8021 40.7229L27.1309 42.0195C28.1486 42.4747 29.3254 42.1972 29.9719 41.3828C29.9989 41.3495 30.0248 41.315 30.0484 41.2793C30.3988 40.7809 30.4726 40.179 30.3185 39.6347C30.184 39.1525 29.8694 38.7158 29.4081 38.4356L16.1379 29.4066C13.514 27.6214 10.288 26.9554 7.17318 27.5536L0.714468 28.8211C0.367288 28.8894 0.116768 29.1937 0.116768 29.5475V30.3581L17.4358 39.1154Z" fill="#FED2A4"/>
<path d="M20.5569 26.1581C27.7704 26.1581 33.6181 20.3104 33.6181 13.0969C33.6181 5.88335 27.7704 0.0356445 20.5569 0.0356445C13.3434 0.0356445 7.49567 5.88335 7.49567 13.0969C7.49567 20.3104 13.3434 26.1581 20.5569 26.1581Z" fill="#FEDF30"/>
<path d="M24.4744 0.629639C27.7754 3.00031 29.9257 6.87226 29.9257 11.2466C29.9257 18.4611 24.0772 24.3096 16.8626 24.3096C15.5001 24.3096 14.1866 24.1007 12.9518 23.7138C15.095 25.2532 17.7233 26.1602 20.5635 26.1602C27.778 26.1602 33.6266 20.3116 33.6266 13.0971C33.6266 7.24486 29.7782 2.29165 24.4744 0.629639Z" fill="#FAC600"/>
<path d="M25.3144 15.5867C25.3144 16.2551 25.1685 16.879 24.8772 17.4587C24.5856 18.0384 24.1571 18.5431 23.592 18.9732C23.0266 19.4035 22.3386 19.7216 21.528 19.9279V22.3812H19V20.216C18.2034 20.2017 17.3981 20.104 16.5841 19.9226C15.7697 19.7412 15.2417 19.5476 15.0002 19.3413V15.3415C16.472 16.4225 17.9013 16.9627 19.2879 16.9627C19.6647 16.9627 19.9616 16.8703 20.1785 16.6854C20.3954 16.5006 20.5037 16.2482 20.5037 15.928C20.5037 15.6579 20.4361 15.4426 20.3011 15.2827C20.166 15.1227 19.9438 14.9575 19.6345 14.7867C19.3252 14.6161 18.8647 14.4098 18.2532 14.168C15.9564 13.2578 14.8082 11.7931 14.8082 9.7736C14.8082 8.60044 15.1797 7.61557 15.9228 6.81899C16.6656 6.02268 17.6915 5.50707 19 5.27244V3.1499H21.528V5.16572C22.7867 5.23695 23.7999 5.39691 24.5679 5.64557V9.52837C24.0202 9.18702 23.4069 8.91346 22.7279 8.70716C22.0486 8.50113 21.3821 8.39785 20.728 8.39785C20.3368 8.39785 20.0204 8.48842 19.7786 8.66983C19.5368 8.85123 19.4161 9.08056 19.4161 9.35783C19.4161 9.69918 19.5601 9.9889 19.848 10.2272C20.1361 10.4656 20.6035 10.7161 21.2505 10.9793C22.6585 11.5553 23.6876 12.215 24.3383 12.9578C24.9892 13.7006 25.3144 14.5772 25.3144 15.5867Z" fill="url(#paint0_linear_0_963)"/>
<defs>
<linearGradient id="paint0_linear_0_963" x1="14.8083" y1="12.7656" x2="25.3144" y2="12.7656" gradientUnits="userSpaceOnUse">
<stop offset="0.5" stop-color="#FE9738"/>
</linearGradient>
</defs>
</svg>
